<?xml version="1.0" encoding="iso-8859-1"?>
<!-- Generator: Adobe Illustrator 19.0.0, SVG Export Plug-In . SVG Version: 6.00 Build 0)  -->
<svg version="1.1" id="Capa_1" xmlns="http://www.w3.org/2000/svg" xmlns:xlink="http://www.w3.org/1999/xlink" x="0px" y="0px"
	 viewBox="0 0 496.941 496.941" style="enable-background:new 0 0 496.941 496.941;" xml:space="preserve">
<g>
	<g>
		<g>
			<path d="M464.565,141.553L330.541,2.259C329.035,0.753,327.529,0,325.271,0H37.647c-4.518,0-7.529,3.012-7.529,7.529v481.882
				c0,4.518,3.012,7.529,7.529,7.529h421.647c4.518,0,7.529-3.012,7.529-7.529V146.824
				C466.824,145.318,466.071,143.059,464.565,141.553z M332.8,26.353l109.176,112.941H332.8V26.353z M451.765,481.882H45.176V15.059
				h272.565v131.765c0,4.518,3.012,7.529,7.529,7.529h126.494V481.882z"/>
			<path d="M173.176,38.4H76.8c-4.518,0-7.529,3.012-7.529,7.529v96.376c0,4.518,3.012,7.529,7.529,7.529h96.376
				c4.518,0,7.529-3.012,7.529-7.529V45.929C180.706,41.412,177.694,38.4,173.176,38.4z M165.647,134.776H84.329V53.459h81.318
				V134.776z"/>
			<path d="M144.565,191.247H82.824c-4.518,0-7.529,3.012-7.529,7.529v59.482c0,4.518,3.012,7.529,7.529,7.529h61.741
				c4.518,0,7.529-3.012,7.529-7.529v-59.482C152.094,194.259,149.082,191.247,144.565,191.247z M137.035,250.729H90.353v-44.424
				h46.682V250.729z"/>
			<path d="M144.565,285.365H82.824c-4.518,0-7.529,3.012-7.529,7.529v59.482c0,4.518,3.012,7.529,7.529,7.529h61.741
				c4.518,0,7.529-3.012,7.529-7.529v-59.482C152.094,289.129,149.082,285.365,144.565,285.365z M137.035,344.847H90.353v-44.424
				h46.682V344.847z"/>
			<path d="M144.565,380.235H82.824c-4.518,0-7.529,3.012-7.529,7.529v59.482c0,4.518,3.012,7.529,7.529,7.529h61.741
				c4.518,0,7.529-3.012,7.529-7.529v-59.482C152.094,383.247,149.082,380.235,144.565,380.235z M137.035,439.718H90.353v-44.424
				h46.682V439.718z"/>
			<path d="M213.835,62.494h70.024c4.518,0,7.529-3.012,7.529-7.529s-3.012-7.529-7.529-7.529h-70.023
				c-4.518,0-7.529,3.012-7.529,7.529C206.306,58.729,209.318,62.494,213.835,62.494z"/>
			<path d="M213.835,101.647h70.024c4.518,0,7.529-3.012,7.529-7.529c0-4.518-3.012-7.529-7.529-7.529h-70.023
				c-4.518,0-7.529,3.012-7.529,7.529C206.306,98.635,209.318,101.647,213.835,101.647z"/>
			<path d="M213.835,140.8h70.024c4.518,0,7.529-3.012,7.529-7.529s-3.012-7.529-7.529-7.529h-70.023
				c-4.518,0-7.529,3.012-7.529,7.529C206.306,137.788,209.318,140.8,213.835,140.8z"/>
			<path d="M182.212,258.259c0,4.518,3.012,7.529,7.529,7.529h202.541c4.518,0,7.529-3.012,7.529-7.529s-3.765-7.529-7.529-7.529
				H189.741C185.224,250.729,182.212,253.741,182.212,258.259z"/>
			<path d="M392.282,344.847H189.741c-4.518,0-7.529,3.012-7.529,7.529s3.012,7.529,7.529,7.529h202.541
				c4.518,0,7.529-3.012,7.529-7.529C399.812,348.612,396.047,344.847,392.282,344.847z"/>
			<path d="M392.282,439.718H189.741c-4.518,0-7.529,3.012-7.529,7.529s3.012,7.529,7.529,7.529h202.541
				c4.518,0,7.529-3.012,7.529-7.529S396.047,439.718,392.282,439.718z"/>
			<path d="M318.494,182.212l-54.965,40.659l-8.282-23.341c-1.506-3.765-6.024-6.024-9.788-4.518
				c-3.765,1.506-6.024,6.023-4.518,9.788l12.047,33.129c0.753,2.259,3.012,3.765,5.271,4.518c2.259,0.753,4.518,0,6.776-1.506
				l62.494-46.682c3.012-2.259,3.765-7.529,1.506-10.541C326.776,180.706,321.506,179.953,318.494,182.212z"/>
			<path d="M258.259,338.824c2.259,0.753,4.518,0,6.776-1.506l62.494-46.682c3.012-2.259,3.765-7.529,1.506-10.541
				c-2.259-3.012-7.529-3.765-10.541-1.506l-54.965,40.659l-8.282-24.094c-1.506-3.765-6.024-6.024-9.788-4.518
				c-3.765,1.506-6.024,6.023-4.518,9.788l12.047,33.129C253.741,336.565,256,338.071,258.259,338.824z"/>
			<path d="M258.259,431.435c2.259,0.753,4.518,0,6.776-1.506l62.494-46.682c3.012-2.259,3.765-7.529,1.506-10.541
				c-2.259-3.012-7.529-3.765-10.541-1.506l-54.965,41.412l-8.282-24.094c-1.506-3.765-6.024-6.024-9.788-4.518
				c-3.765,1.506-6.024,6.023-4.518,9.788l12.047,33.129C253.741,429.176,256,430.682,258.259,431.435z"/>
		</g>
	</g>
</g>
<g>
</g>
<g>
</g>
<g>
</g>
<g>
</g>
<g>
</g>
<g>
</g>
<g>
</g>
<g>
</g>
<g>
</g>
<g>
</g>
<g>
</g>
<g>
</g>
<g>
</g>
<g>
</g>
<g>
</g>
</svg>
